<?xml version="1.0" standalone="no"?><!DOCTYPE svg PUBLIC "-//W3C//DTD SVG 1.1//EN" "http://www.w3.org/Graphics/SVG/1.1/DTD/svg11.dtd"><svg t="1775365038969" class="icon" viewBox="0 0 1024 1024" version="1.1" xmlns="http://www.w3.org/2000/svg" p-id="8338" xmlns:xlink="http://www.w3.org/1999/xlink" width="200" height="200"><path d="M1022.464 828.928s-100.864 19.968-202.752 41.472l-136.192 151.552-145.92-249.344c-8.192 0.512-16.384 1.024-25.088 1.024-8.192 0-16.384-0.512-25.088-1.024l-145.92 249.344L205.312 870.4c-102.4-20.992-202.752-41.472-202.752-41.472l158.72-270.848c-25.6-51.2-40.448-108.544-40.448-169.472C120.832 175.616 295.936 3.072 512.512 3.072s391.168 172.544 391.168 385.536c0 60.928-14.848 118.272-40.448 169.472l159.232 270.848z m-319.488 48.128s41.472-39.424 80.384-77.312c55.296-15.872 111.104-31.744 111.104-31.744l-78.336-133.632c-45.056 58.88-110.08 102.4-184.832 120.32l71.68 122.368zM131.072 770.56s56.32 16.384 112.128 32.256c39.424 38.4 81.408 78.336 81.408 78.336L396.8 757.76C321.536 738.816 256 694.784 209.92 635.392l-78.848 135.168z m383.488-672.768c-161.792 0-293.376 131.584-293.376 293.888s131.072 293.888 293.376 293.888c161.792 0 293.376-131.584 293.376-293.888s-131.072-293.888-293.376-293.888z" p-id="8339" fill="#e95322"></path><path d="M481.792 375.296c-11.264 18.944-23.552 37.888-37.376 54.272v176.64h-47.104V477.696c-12.8 10.752-25.6 20.992-39.936 29.184-5.632-10.24-22.016-31.232-32.256-40.96 39.936-21.504 74.24-52.736 100.864-90.624H341.504v-43.52h109.568c3.072-6.144 5.632-12.288 8.192-18.944h-36.352v-26.624H340.48v-43.52h82.944v-24.064h48.64v24.064h109.056v-24.064h48.64v24.064h80.896v43.52H629.76V312.32h-48.64v-26.624H472.064v9.728l41.984 10.24c-3.072 8.192-6.144 16.896-9.728 25.6h204.288v43.52H481.792z m232.96 144.896H619.52v38.912c0 21.504-4.096 32.256-20.48 38.912-15.36 6.656-36.352 6.656-65.536 6.656-2.048-12.288-9.216-29.696-14.848-41.472 18.432 1.024 38.912 1.024 45.568 1.024 5.632-0.512 7.68-1.536 7.68-6.656v-37.376H464.896v-41.472h106.496v-20.992c10.752-5.632 23.04-13.312 33.792-20.992h-107.52v-38.4H650.24l9.728-2.56 28.672 23.04c-19.456 18.432-44.544 36.864-69.632 52.224v7.68h95.232v41.472z" p-id="8340" fill="#e95322"></path></svg>